<svg id="svg" version="1.1" xmlns="http://www.w3.org/2000/svg" xmlns:xlink="http://www.w3.org/1999/xlink" width="400" height="400" viewBox="0, 0, 400,400"><g id="svgg"><path id="path0" d="M295.800 6.400 C 295.664 6.620,294.573 6.800,293.376 6.800 C 292.179 6.800,291.200 6.980,291.200 7.200 C 291.200 7.420,290.480 7.600,289.600 7.600 C 288.720 7.600,288.000 7.780,288.000 8.000 C 288.000 8.220,287.325 8.401,286.500 8.402 C 285.675 8.404,284.484 8.674,283.854 9.002 C 283.224 9.331,282.380 9.600,281.978 9.600 C 281.576 9.600,281.136 9.780,281.000 10.000 C 280.864 10.220,280.403 10.400,279.976 10.400 C 279.549 10.400,279.200 10.580,279.200 10.800 C 279.200 11.020,278.840 11.200,278.400 11.200 C 277.960 11.200,277.600 11.380,277.600 11.600 C 277.600 11.820,277.274 12.000,276.875 12.000 C 276.477 12.000,275.764 12.360,275.292 12.800 C 274.820 13.240,274.156 13.600,273.817 13.600 C 273.478 13.600,273.200 13.780,273.200 14.000 C 273.200 14.220,272.975 14.400,272.700 14.401 C 272.425 14.401,271.570 14.941,270.800 15.600 C 270.030 16.259,269.241 16.799,269.047 16.799 C 268.853 16.800,268.403 17.117,268.047 17.504 C 267.691 17.892,266.695 18.734,265.833 19.376 C 262.601 21.783,43.382 241.410,42.603 243.021 C 42.018 244.231,41.835 245.511,41.820 248.498 C 41.809 250.642,41.665 252.397,41.500 252.398 C 41.335 252.399,41.200 253.030,41.200 253.800 C 41.200 254.570,41.020 255.200,40.800 255.200 C 40.580 255.200,40.400 255.819,40.400 256.576 C 40.400 257.333,40.220 258.064,40.000 258.200 C 39.780 258.336,39.600 258.876,39.600 259.400 C 39.600 259.924,39.420 260.464,39.200 260.600 C 38.980 260.736,38.800 261.467,38.800 262.224 C 38.800 262.981,38.620 263.600,38.400 263.600 C 38.180 263.600,38.000 264.140,38.000 264.800 C 38.000 265.460,37.820 266.000,37.600 266.000 C 37.380 266.000,37.200 266.720,37.200 267.600 C 37.200 268.480,37.020 269.200,36.800 269.200 C 36.580 269.200,36.400 269.740,36.400 270.400 C 36.400 271.060,36.220 271.600,36.000 271.600 C 35.780 271.600,35.600 272.320,35.600 273.200 C 35.600 274.080,35.420 274.800,35.200 274.800 C 34.980 274.800,34.800 275.329,34.800 275.976 C 34.800 276.623,34.620 277.264,34.400 277.400 C 34.180 277.536,34.000 278.177,34.000 278.824 C 34.000 279.471,33.820 280.000,33.600 280.000 C 33.380 280.000,33.200 280.619,33.200 281.376 C 33.200 282.133,33.020 282.864,32.800 283.000 C 32.580 283.136,32.400 283.777,32.400 284.424 C 32.400 285.071,32.220 285.600,32.000 285.600 C 31.780 285.600,31.600 286.320,31.600 287.200 C 31.600 288.080,31.420 288.800,31.200 288.800 C 30.980 288.800,30.800 289.340,30.800 290.000 C 30.800 290.660,30.620 291.200,30.400 291.200 C 30.180 291.200,30.000 291.819,30.000 292.576 C 30.000 293.333,29.820 294.064,29.600 294.200 C 29.380 294.336,29.200 294.966,29.200 295.600 C 29.200 296.234,29.020 296.864,28.800 297.000 C 28.580 297.136,28.400 297.766,28.400 298.400 C 28.400 299.034,28.220 299.664,28.000 299.800 C 27.780 299.936,27.600 300.566,27.600 301.200 C 27.600 301.834,27.440 302.452,27.244 302.573 C 27.049 302.694,26.795 303.379,26.681 304.096 C 26.568 304.813,26.258 306.120,25.993 307.000 C 25.729 307.880,25.315 309.725,25.074 311.100 C 24.833 312.475,24.493 313.600,24.318 313.600 C 24.143 313.600,24.000 314.140,24.000 314.800 C 24.000 315.460,23.820 316.000,23.600 316.000 C 23.380 316.000,23.200 316.720,23.200 317.600 C 23.200 318.480,23.020 319.200,22.800 319.200 C 22.580 319.200,22.400 319.740,22.400 320.400 C 22.400 321.060,22.220 321.600,22.000 321.600 C 21.780 321.600,21.600 322.320,21.600 323.200 C 21.600 324.080,21.420 324.800,21.200 324.800 C 20.980 324.800,20.800 325.329,20.800 325.976 C 20.800 326.623,20.620 327.264,20.400 327.400 C 20.180 327.536,20.000 328.177,20.000 328.824 C 20.000 329.471,19.820 330.000,19.600 330.000 C 19.380 330.000,19.200 330.619,19.200 331.376 C 19.200 332.133,19.020 332.864,18.800 333.000 C 18.580 333.136,18.400 333.777,18.400 334.424 C 18.400 335.071,18.220 335.600,18.000 335.600 C 17.780 335.600,17.600 336.320,17.600 337.200 C 17.600 338.080,17.420 338.800,17.200 338.800 C 16.980 338.800,16.800 339.340,16.800 340.000 C 16.800 340.660,16.620 341.200,16.400 341.200 C 16.180 341.200,16.000 341.819,16.000 342.576 C 16.000 343.333,15.820 344.064,15.600 344.200 C 15.380 344.336,15.200 344.966,15.200 345.600 C 15.200 346.234,15.020 346.864,14.800 347.000 C 14.580 347.136,14.400 347.777,14.400 348.424 C 14.400 349.071,14.220 349.600,14.000 349.600 C 13.780 349.600,13.600 350.219,13.600 350.976 C 13.600 351.733,13.420 352.464,13.200 352.600 C 12.980 352.736,12.800 353.377,12.800 354.024 C 12.800 354.671,12.620 355.200,12.400 355.200 C 12.180 355.200,12.000 355.819,12.000 356.576 C 12.000 357.333,11.820 358.064,11.600 358.200 C 11.380 358.336,11.200 358.966,11.200 359.600 C 11.200 360.234,11.020 360.864,10.800 361.000 C 10.580 361.136,10.400 361.766,10.400 362.400 C 10.400 363.034,10.244 363.649,10.053 363.768 C 9.861 363.886,9.561 364.751,9.386 365.691 C 9.210 366.631,9.005 367.670,8.929 368.000 C 8.853 368.330,8.684 369.275,8.552 370.100 C 8.420 370.925,8.152 371.600,7.956 371.600 C 7.760 371.600,7.600 372.320,7.600 373.200 C 7.600 374.080,7.420 374.800,7.200 374.800 C 6.980 374.800,6.800 375.329,6.800 375.976 C 6.800 376.623,6.620 377.264,6.400 377.400 C 6.180 377.536,6.000 378.177,6.000 378.824 C 6.000 379.471,5.820 380.000,5.600 380.000 C 5.380 380.000,5.200 380.619,5.200 381.376 C 5.200 382.133,5.020 382.864,4.800 383.000 C 4.580 383.136,4.400 383.766,4.400 384.400 C 4.400 385.034,4.220 385.664,4.000 385.800 C 3.477 386.123,3.477 390.800,4.000 390.800 C 4.220 390.800,4.400 391.340,4.400 392.000 C 4.400 392.660,4.580 393.200,4.800 393.200 C 5.020 393.200,5.200 393.478,5.200 393.817 C 5.200 394.156,5.560 394.820,6.000 395.292 C 6.440 395.764,6.800 396.387,6.800 396.675 C 6.800 396.964,7.042 397.200,7.338 397.200 C 7.634 397.200,8.202 397.560,8.600 398.000 C 8.998 398.440,9.551 398.800,9.829 398.800 C 10.106 398.800,10.408 399.025,10.500 399.300 C 10.735 400.003,20.561 399.999,21.264 399.296 C 21.537 399.023,22.264 398.800,22.880 398.800 C 23.496 398.800,24.000 398.620,24.000 398.400 C 24.000 398.180,24.630 398.000,25.400 398.000 C 26.170 398.000,26.800 397.820,26.800 397.600 C 26.800 397.380,27.520 397.200,28.400 397.200 C 29.280 397.200,30.000 397.020,30.000 396.800 C 30.000 396.580,30.630 396.400,31.400 396.400 C 32.170 396.400,32.800 396.220,32.800 396.000 C 32.800 395.780,33.430 395.600,34.200 395.600 C 34.970 395.600,35.600 395.420,35.600 395.200 C 35.600 394.980,36.219 394.800,36.976 394.800 C 37.733 394.800,38.464 394.620,38.600 394.400 C 38.736 394.180,39.467 394.000,40.224 394.000 C 40.981 394.000,41.600 393.820,41.600 393.600 C 41.600 393.380,42.140 393.200,42.800 393.200 C 43.460 393.200,44.000 393.020,44.000 392.800 C 44.000 392.580,44.720 392.400,45.600 392.400 C 46.480 392.400,47.200 392.246,47.200 392.057 C 47.200 391.868,48.317 391.597,49.682 391.454 C 51.048 391.312,52.344 391.016,52.562 390.798 C 52.781 390.579,53.543 390.400,54.256 390.400 C 54.969 390.400,55.664 390.220,55.800 390.000 C 55.936 389.780,56.566 389.600,57.200 389.600 C 57.834 389.600,58.464 389.420,58.600 389.200 C 58.736 388.980,59.366 388.800,60.000 388.800 C 60.634 388.800,61.264 388.620,61.400 388.400 C 61.536 388.180,62.267 388.000,63.024 388.000 C 63.781 388.000,64.400 387.820,64.400 387.600 C 64.400 387.380,65.019 387.200,65.776 387.200 C 66.533 387.200,67.264 387.020,67.400 386.800 C 67.536 386.580,68.166 386.400,68.800 386.400 C 69.434 386.400,70.064 386.220,70.200 386.000 C 70.336 385.780,70.966 385.600,71.600 385.600 C 72.234 385.600,72.864 385.420,73.000 385.200 C 73.136 384.980,73.867 384.800,74.624 384.800 C 75.381 384.800,76.000 384.620,76.000 384.400 C 76.000 384.180,76.619 384.000,77.376 384.000 C 78.133 384.000,78.864 383.820,79.000 383.600 C 79.136 383.380,79.766 383.200,80.400 383.200 C 81.034 383.200,81.664 383.020,81.800 382.800 C 81.936 382.580,82.667 382.400,83.424 382.400 C 84.181 382.400,84.800 382.220,84.800 382.000 C 84.800 381.780,85.419 381.600,86.176 381.600 C 86.933 381.600,87.664 381.420,87.800 381.200 C 87.936 380.980,88.577 380.800,89.224 380.800 C 89.871 380.800,90.400 380.620,90.400 380.400 C 90.400 380.180,91.030 380.000,91.800 380.000 C 92.570 380.000,93.200 379.820,93.200 379.600 C 93.200 379.380,93.920 379.200,94.800 379.200 C 95.680 379.200,96.400 379.020,96.400 378.800 C 96.400 378.580,97.019 378.400,97.776 378.400 C 98.533 378.400,99.264 378.220,99.400 378.000 C 99.536 377.780,100.177 377.600,100.824 377.600 C 101.471 377.600,102.000 377.420,102.000 377.200 C 102.000 376.980,102.720 376.800,103.600 376.800 C 104.480 376.800,105.200 376.620,105.200 376.400 C 105.200 376.180,105.830 376.000,106.600 376.000 C 107.370 376.000,108.000 375.838,108.000 375.639 C 108.000 375.441,109.125 375.151,110.500 374.995 C 111.875 374.839,113.180 374.574,113.400 374.406 C 113.776 374.119,114.835 373.867,117.900 373.337 C 118.615 373.214,119.200 372.952,119.200 372.756 C 119.200 372.560,119.819 372.400,120.576 372.400 C 121.333 372.400,122.064 372.220,122.200 372.000 C 122.336 371.780,123.067 371.600,123.824 371.600 C 124.581 371.600,125.200 371.440,125.200 371.244 C 125.200 371.048,125.830 370.778,126.600 370.644 C 127.370 370.510,128.630 370.290,129.400 370.156 C 130.170 370.022,130.800 369.752,130.800 369.556 C 130.800 369.360,131.520 369.200,132.400 369.200 C 133.280 369.200,134.000 369.020,134.000 368.800 C 134.000 368.580,134.619 368.400,135.376 368.400 C 136.133 368.400,136.864 368.220,137.000 368.000 C 137.136 367.780,137.777 367.600,138.424 367.600 C 139.071 367.600,139.600 367.420,139.600 367.200 C 139.600 366.980,140.230 366.800,141.000 366.800 C 141.770 366.800,142.400 366.620,142.400 366.400 C 142.400 366.180,143.120 366.000,144.000 366.000 C 144.880 366.000,145.600 365.820,145.600 365.600 C 145.600 365.380,146.129 365.200,146.776 365.200 C 147.423 365.200,148.064 365.020,148.200 364.800 C 148.336 364.580,149.067 364.400,149.824 364.400 C 150.581 364.400,151.200 364.220,151.200 364.000 C 151.200 363.757,152.992 363.600,155.776 363.600 C 158.396 363.600,160.458 363.429,160.600 363.200 C 160.736 362.980,161.247 362.800,161.735 362.800 C 162.224 362.800,162.883 362.440,163.200 362.000 C 163.517 361.560,163.976 361.200,164.220 361.200 C 164.969 361.200,388.000 137.862,388.000 137.112 C 388.000 136.882,388.335 136.403,388.745 136.047 C 389.154 135.691,390.002 134.410,390.628 133.200 C 391.255 131.990,391.910 130.940,392.084 130.867 C 392.258 130.793,392.400 130.388,392.400 129.967 C 392.400 129.545,392.580 129.200,392.800 129.200 C 393.020 129.200,393.200 128.840,393.200 128.400 C 393.200 127.960,393.380 127.600,393.600 127.600 C 393.820 127.600,394.000 127.240,394.000 126.800 C 394.000 126.360,394.180 126.000,394.400 126.000 C 394.620 126.000,394.800 125.640,394.800 125.200 C 394.800 124.760,394.980 124.400,395.200 124.400 C 395.420 124.400,395.600 123.961,395.600 123.424 C 395.600 122.887,395.780 122.336,396.000 122.200 C 396.220 122.064,396.400 121.513,396.400 120.976 C 396.400 120.439,396.580 120.000,396.800 120.000 C 397.020 120.000,397.200 119.280,397.200 118.400 C 397.200 117.520,397.380 116.800,397.600 116.800 C 397.820 116.800,398.000 116.080,398.000 115.200 C 398.000 114.320,398.180 113.600,398.400 113.600 C 398.625 113.600,398.800 112.475,398.800 111.024 C 398.800 109.607,398.980 108.336,399.200 108.200 C 399.437 108.054,399.600 105.604,399.600 102.200 C 399.600 98.796,399.437 96.346,399.200 96.200 C 398.980 96.064,398.800 94.894,398.800 93.600 C 398.800 92.306,398.620 91.136,398.400 91.000 C 398.180 90.864,398.000 90.054,398.000 89.200 C 398.000 88.346,397.820 87.536,397.600 87.400 C 397.380 87.264,397.200 86.623,397.200 85.976 C 397.200 85.329,397.020 84.800,396.800 84.800 C 396.580 84.800,396.400 84.260,396.400 83.600 C 396.400 82.940,396.220 82.400,396.000 82.400 C 395.780 82.400,395.600 81.860,395.600 81.200 C 395.600 80.540,395.420 80.000,395.200 80.000 C 394.980 80.000,394.800 79.640,394.800 79.200 C 394.800 78.760,394.620 78.400,394.400 78.400 C 394.180 78.400,394.000 78.040,394.000 77.600 C 394.000 77.160,393.854 76.800,393.675 76.800 C 393.496 76.800,393.102 76.170,392.800 75.400 C 392.498 74.630,392.104 74.000,391.925 74.000 C 391.746 74.000,391.600 73.653,391.600 73.229 C 391.600 72.804,391.330 72.187,391.000 71.857 C 390.670 71.527,390.400 71.109,390.400 70.929 C 390.399 70.748,389.949 70.077,389.400 69.438 C 388.850 68.799,388.400 68.130,388.400 67.951 C 388.400 67.773,387.815 67.027,387.100 66.295 C 386.385 65.562,385.172 64.161,384.405 63.182 C 383.638 62.202,382.468 60.950,381.805 60.400 C 381.142 59.850,378.800 57.535,376.600 55.256 C 371.750 50.231,367.339 45.807,362.348 40.962 C 360.287 38.961,356.418 35.091,353.751 32.362 C 348.589 27.080,341.275 20.000,340.979 20.000 C 340.881 20.000,340.059 19.280,339.152 18.400 C 338.245 17.520,337.321 16.800,337.099 16.800 C 336.876 16.800,336.403 16.484,336.047 16.097 C 335.691 15.711,334.905 15.140,334.300 14.830 C 333.695 14.519,333.200 14.115,333.200 13.932 C 333.200 13.750,332.855 13.600,332.433 13.600 C 332.012 13.600,331.607 13.465,331.533 13.300 C 331.341 12.868,328.028 11.200,327.362 11.200 C 327.053 11.200,326.800 11.020,326.800 10.800 C 326.800 10.580,326.440 10.400,326.000 10.400 C 325.560 10.400,325.200 10.220,325.200 10.000 C 325.200 9.780,324.786 9.600,324.280 9.600 C 323.774 9.600,323.175 9.415,322.949 9.189 C 322.724 8.964,321.608 8.668,320.469 8.534 C 319.331 8.399,318.400 8.134,318.400 7.944 C 318.400 7.755,317.680 7.600,316.800 7.600 C 315.920 7.600,315.200 7.420,315.200 7.200 C 315.200 6.978,314.133 6.800,312.800 6.800 C 311.467 6.800,310.400 6.622,310.400 6.400 C 310.400 6.148,307.741 6.000,303.224 6.000 C 298.871 6.000,295.950 6.157,295.800 6.400 M310.600 29.204 C 311.260 29.392,312.610 29.779,313.600 30.063 C 320.648 32.089,322.728 33.825,346.526 57.545 C 368.457 79.403,371.028 82.219,373.233 86.800 C 373.921 88.230,374.645 89.713,374.842 90.095 C 375.039 90.477,375.200 91.141,375.200 91.571 C 375.200 92.001,375.361 92.452,375.558 92.574 C 376.526 93.172,377.141 105.341,376.378 108.800 C 374.411 117.712,371.791 121.695,360.262 133.300 C 355.508 138.085,351.479 142.000,351.309 142.000 C 351.138 142.000,331.232 122.232,307.072 98.072 L 263.145 54.144 271.747 45.504 C 283.555 33.644,286.933 31.341,295.600 29.240 C 298.988 28.419,307.766 28.398,310.600 29.204 M291.899 113.299 C 315.935 137.334,335.600 157.219,335.600 157.489 C 335.600 158.048,158.024 335.752,157.118 336.099 C 156.463 336.351,69.200 249.394,69.200 248.490 C 69.200 247.971,247.397 69.600,247.915 69.600 C 248.071 69.600,267.864 89.265,291.899 113.299 M252.600 138.633 C 250.267 139.814,149.054 240.612,147.401 243.400 C 142.004 252.505,151.918 263.277,161.269 258.467 C 164.480 256.816,266.110 154.721,267.052 152.200 C 267.911 149.904,267.975 147.385,267.241 144.800 C 266.657 142.741,262.585 138.400,261.238 138.400 C 260.803 138.400,260.336 138.220,260.200 138.000 C 259.676 137.152,254.708 137.566,252.600 138.633 M97.360 307.868 C 117.524 328.036,133.962 344.715,133.889 344.933 C 133.817 345.150,132.867 345.572,131.779 345.870 C 130.690 346.168,129.170 346.589,128.400 346.808 C 126.709 347.286,114.878 350.468,109.600 351.863 C 107.510 352.415,105.170 353.044,104.400 353.260 C 103.630 353.476,102.370 353.809,101.600 354.000 C 100.218 354.342,98.330 354.861,95.600 355.649 C 94.830 355.871,93.570 356.209,92.800 356.400 C 92.030 356.591,90.680 356.951,89.800 357.200 C 88.920 357.449,87.570 357.809,86.800 358.000 C 86.030 358.191,84.725 358.539,83.900 358.773 C 83.075 359.008,81.725 359.392,80.900 359.627 C 80.075 359.861,78.770 360.209,78.000 360.400 C 77.230 360.591,75.970 360.923,75.200 361.139 C 71.277 362.237,65.738 363.750,62.400 364.636 C 60.077 365.252,47.718 368.541,45.000 369.266 C 44.120 369.501,42.950 369.831,42.400 370.000 C 41.850 370.169,40.680 370.493,39.800 370.721 C 36.746 371.510,34.593 372.110,33.300 372.534 C 31.660 373.072,30.993 372.552,31.539 371.161 C 31.747 370.632,32.116 369.480,32.360 368.600 C 32.604 367.720,33.969 362.770,35.394 357.600 C 36.819 352.430,38.144 347.660,38.338 347.000 C 38.533 346.340,38.917 344.990,39.192 344.000 C 39.468 343.010,39.831 341.750,40.000 341.200 C 40.169 340.650,40.529 339.390,40.800 338.400 C 41.071 337.410,41.431 336.150,41.600 335.600 C 41.769 335.050,42.127 333.790,42.395 332.800 C 42.664 331.810,43.045 330.587,43.242 330.081 C 43.439 329.576,43.600 328.808,43.600 328.376 C 43.600 327.943,43.758 327.277,43.951 326.895 C 44.364 326.078,44.984 323.936,46.439 318.300 C 46.680 317.365,47.040 316.287,47.239 315.905 C 47.438 315.523,47.600 314.857,47.600 314.424 C 47.600 313.992,47.761 313.224,47.958 312.719 C 48.155 312.213,48.540 310.990,48.812 310.000 C 49.085 309.010,49.465 307.660,49.657 307.000 C 49.849 306.340,51.533 300.310,53.399 293.600 C 57.463 278.994,57.608 278.476,58.000 277.200 C 58.274 276.309,58.641 274.984,59.413 272.100 C 59.545 271.605,59.889 271.200,60.177 271.200 C 60.464 271.200,77.197 287.701,97.360 307.868 " stroke="none" fill="#44346c" fill-rule="evenodd"></path><path id="path1" d="M296.000 29.804 C 291.110 30.916,286.304 33.156,282.428 36.132 C 279.887 38.083,264.400 53.601,264.400 54.197 C 264.400 54.419,283.931 74.128,307.803 97.994 L 351.206 141.387 359.816 132.793 C 366.942 125.680,372.400 119.371,372.400 118.246 C 372.400 118.124,372.878 116.983,373.461 115.712 C 377.542 106.823,377.218 96.534,372.558 87.017 C 370.202 82.206,369.417 81.337,347.644 59.455 C 326.210 37.914,323.289 35.251,318.444 32.834 C 315.658 31.445,314.027 30.871,309.354 29.635 C 307.190 29.063,298.792 29.170,296.000 29.804 M158.616 159.468 L 69.537 248.536 113.168 292.168 L 156.800 335.799 245.987 246.613 L 335.175 157.426 291.599 113.913 C 267.632 89.981,247.949 70.400,247.859 70.400 C 247.768 70.400,207.609 110.481,158.616 159.468 M261.277 137.778 C 267.243 140.285,270.239 148.027,267.322 153.400 C 266.425 155.052,164.473 257.159,162.138 258.744 C 161.444 259.215,160.510 259.600,160.062 259.600 C 159.614 259.600,159.136 259.780,159.000 260.000 C 158.664 260.544,155.099 260.506,153.719 259.944 C 150.740 258.729,150.004 258.325,148.916 257.303 C 145.826 254.402,144.125 248.541,145.547 245.695 C 145.738 245.313,146.267 244.283,146.722 243.406 C 147.863 241.210,249.875 139.143,251.898 138.173 C 254.894 136.738,258.446 136.588,261.277 137.778 M60.090 272.470 C 59.820 272.740,59.600 273.453,59.600 274.056 C 59.600 274.659,59.420 275.264,59.200 275.400 C 58.980 275.536,58.800 276.078,58.800 276.605 C 58.800 277.131,58.639 277.976,58.442 278.481 C 58.245 278.987,57.864 280.210,57.595 281.200 C 57.327 282.190,56.969 283.450,56.800 284.000 C 56.631 284.550,56.271 285.810,56.000 286.800 C 55.729 287.790,55.369 289.050,55.200 289.600 C 55.031 290.150,54.693 291.320,54.448 292.200 C 53.333 296.216,47.953 315.569,47.553 317.000 C 47.308 317.880,46.969 319.050,46.800 319.600 C 46.631 320.150,46.271 321.410,46.000 322.400 C 45.729 323.390,45.369 324.650,45.200 325.200 C 45.031 325.750,44.673 327.010,44.405 328.000 C 44.136 328.990,43.755 330.213,43.558 330.719 C 43.361 331.224,43.200 332.069,43.200 332.595 C 43.200 333.122,43.020 333.664,42.800 333.800 C 42.580 333.936,42.400 334.566,42.400 335.200 C 42.400 335.834,42.220 336.464,42.000 336.600 C 41.780 336.736,41.600 337.366,41.600 338.000 C 41.600 338.634,41.420 339.264,41.200 339.400 C 40.980 339.536,40.800 340.166,40.800 340.800 C 40.800 341.434,40.620 342.064,40.400 342.200 C 40.180 342.336,40.000 342.878,40.000 343.405 C 40.000 343.931,39.839 344.776,39.642 345.281 C 39.445 345.787,39.064 347.010,38.795 348.000 C 38.527 348.990,38.169 350.250,38.000 350.800 C 37.831 351.350,37.468 352.610,37.192 353.600 C 36.917 354.590,36.533 355.940,36.338 356.600 C 34.554 362.654,32.380 370.975,32.478 371.378 C 32.573 371.766,33.230 371.724,35.400 371.190 C 38.534 370.420,52.741 366.624,54.600 366.060 C 55.260 365.860,57.330 365.298,59.200 364.812 C 61.070 364.327,63.013 363.765,63.519 363.564 C 64.024 363.364,64.869 363.200,65.395 363.200 C 65.922 363.200,66.452 363.040,66.573 362.844 C 66.694 362.649,67.379 362.391,68.096 362.273 C 70.259 361.915,71.756 361.558,72.600 361.200 C 73.444 360.842,74.941 360.485,77.104 360.127 C 77.821 360.009,78.506 359.751,78.627 359.556 C 78.748 359.360,79.366 359.200,80.000 359.200 C 80.634 359.200,81.252 359.040,81.373 358.844 C 81.494 358.649,82.179 358.395,82.896 358.281 C 83.613 358.168,84.830 357.890,85.600 357.665 C 86.370 357.440,88.440 356.870,90.200 356.400 C 91.960 355.930,93.940 355.390,94.600 355.200 C 95.260 355.010,97.150 354.497,98.800 354.059 C 100.450 353.621,102.790 352.993,104.000 352.663 C 105.210 352.333,108.360 351.491,111.000 350.791 C 113.640 350.092,116.340 349.371,117.000 349.188 C 120.675 348.170,124.726 347.109,125.600 346.937 C 126.150 346.828,126.960 346.587,127.400 346.400 C 128.147 346.083,128.946 345.884,131.700 345.330 C 132.305 345.209,132.800 344.904,132.800 344.654 C 132.800 343.641,60.598 271.962,60.090 272.470 " stroke="none" fill="#fbfbfb" fill-rule="evenodd"></path><path id="path2" d="M301.113 29.095 C 302.276 29.176,304.076 29.176,305.113 29.093 C 306.151 29.011,305.200 28.945,303.000 28.946 C 300.800 28.947,299.951 29.014,301.113 29.095 M309.000 29.581 C 309.768 29.929,311.910 30.156,311.567 29.853 C 311.475 29.772,310.680 29.596,309.800 29.462 C 308.685 29.293,308.442 29.329,309.000 29.581 M312.400 30.341 C 312.730 30.534,313.540 30.809,314.200 30.952 C 314.968 31.118,315.184 31.084,314.800 30.859 C 314.470 30.666,313.660 30.391,313.000 30.248 C 312.232 30.082,312.016 30.116,312.400 30.341 M288.893 31.780 C 287.647 32.468,287.256 32.906,288.212 32.543 C 289.703 31.975,290.999 31.205,290.400 31.242 C 290.070 31.262,289.392 31.504,288.893 31.780 M318.718 32.966 C 320.542 33.924,322.432 35.044,322.918 35.454 L 323.800 36.200 323.059 35.323 C 322.360 34.496,316.468 31.187,315.739 31.212 C 315.553 31.218,316.893 32.007,318.718 32.966 M280.311 37.654 C 277.933 39.978,277.917 40.007,280.000 38.191 C 283.146 35.449,283.403 35.200,283.096 35.200 C 282.945 35.200,281.691 36.304,280.311 37.654 M346.402 58.200 C 357.731 69.640,367.082 78.948,367.183 78.884 C 367.284 78.820,358.015 69.460,346.585 58.084 L 325.804 37.400 346.402 58.200 M267.492 50.308 C 265.571 52.237,264.000 53.993,264.000 54.209 C 264.000 54.425,283.620 74.221,307.600 98.200 L 351.200 141.798 360.100 132.800 L 369.000 123.802 360.103 132.595 L 351.206 141.387 307.803 97.994 C 283.931 74.128,264.400 54.425,264.400 54.209 C 264.400 53.993,265.971 52.237,267.892 50.308 C 269.812 48.379,271.293 46.800,271.183 46.800 C 271.073 46.800,269.412 48.379,267.492 50.308 M248.400 70.589 C 248.400 70.816,333.940 156.270,334.800 156.903 C 335.130 157.145,315.870 137.781,292.001 113.872 C 249.373 71.173,248.400 70.207,248.400 70.589 M367.600 79.464 C 367.600 79.682,368.095 80.297,368.700 80.830 L 369.800 81.800 368.800 80.600 C 368.250 79.940,367.755 79.325,367.700 79.233 C 367.645 79.142,367.600 79.245,367.600 79.464 M233.792 84.100 L 230.200 87.800 233.900 84.208 C 237.336 80.872,237.782 80.400,237.492 80.400 C 237.432 80.400,235.767 82.065,233.792 84.100 M371.560 85.000 C 372.234 86.305,372.788 87.028,372.785 86.600 C 372.783 86.380,372.414 85.750,371.964 85.200 C 371.421 84.536,371.285 84.469,371.560 85.000 M375.668 96.000 C 375.662 96.550,375.811 97.360,376.000 97.800 L 376.344 98.600 376.332 97.800 C 376.326 97.360,376.176 96.550,376.000 96.000 L 375.680 95.000 375.668 96.000 M217.392 100.500 L 213.800 104.200 217.500 100.608 C 220.936 97.272,221.382 96.800,221.092 96.800 C 221.032 96.800,219.367 98.465,217.392 100.500 M375.856 107.284 C 375.721 107.788,375.627 108.560,375.646 109.000 C 375.665 109.440,375.845 109.098,376.046 108.240 C 376.436 106.578,376.270 105.740,375.856 107.284 M200.192 117.700 L 196.600 121.400 200.300 117.808 C 203.736 114.472,204.182 114.000,203.892 114.000 C 203.832 114.000,202.167 115.665,200.192 117.700 M373.023 116.606 C 372.160 118.672,372.274 118.906,373.247 117.062 C 373.693 116.216,373.965 115.432,373.852 115.319 C 373.739 115.206,373.366 115.785,373.023 116.606 M369.599 122.500 C 369.010 123.304,368.913 123.584,369.345 123.233 C 370.001 122.700,370.993 121.200,370.689 121.200 C 370.613 121.200,370.122 121.785,369.599 122.500 M183.792 134.100 L 180.200 137.800 183.900 134.208 C 187.336 130.872,187.782 130.400,187.492 130.400 C 187.432 130.400,185.767 132.065,183.792 134.100 M257.400 137.223 C 259.426 137.642,261.063 137.623,259.400 137.200 C 258.740 137.032,257.660 136.894,257.000 136.893 C 255.991 136.892,256.055 136.945,257.400 137.223 M250.362 139.171 C 248.540 140.673,147.627 241.659,147.182 242.425 C 146.999 242.741,169.923 219.896,198.124 191.659 C 226.326 163.421,250.102 139.796,250.960 139.159 C 251.818 138.521,252.354 138.000,252.151 138.000 C 251.948 138.000,251.143 138.527,250.362 139.171 M265.404 141.000 C 267.007 143.226,267.450 143.639,266.557 142.073 C 266.141 141.343,265.452 140.443,265.026 140.073 C 264.576 139.682,264.734 140.069,265.404 141.000 M268.128 148.400 C 268.128 149.830,268.201 150.415,268.289 149.700 C 268.378 148.985,268.378 147.815,268.289 147.100 C 268.201 146.385,268.128 146.970,268.128 148.400 M167.392 150.500 L 163.800 154.200 167.500 150.608 C 169.535 148.633,171.200 146.968,171.200 146.908 C 171.200 146.618,170.728 147.064,167.392 150.500 M267.196 152.887 C 266.861 153.745,248.714 172.225,214.843 206.200 L 163.002 258.200 214.727 206.600 C 261.355 160.085,268.670 152.537,267.882 151.748 C 267.786 151.653,267.477 152.165,267.196 152.887 M245.900 246.700 L 156.801 335.799 113.100 292.200 L 69.400 248.600 113.100 292.400 L 156.800 336.200 246.100 246.900 C 295.215 197.785,335.310 157.600,335.200 157.600 C 335.090 157.600,294.905 197.695,245.900 246.700 M150.192 167.700 L 146.600 171.400 150.300 167.808 C 152.335 165.833,154.000 164.168,154.000 164.108 C 154.000 163.818,153.528 164.264,150.192 167.700 M133.792 184.100 L 130.200 187.800 133.900 184.208 C 137.336 180.872,137.782 180.400,137.492 180.400 C 137.432 180.400,135.767 182.065,133.792 184.100 M117.392 200.500 L 113.800 204.200 117.500 200.608 C 120.936 197.272,121.382 196.800,121.092 196.800 C 121.032 196.800,119.367 198.465,117.392 200.500 M100.192 217.700 L 96.600 221.400 100.300 217.808 C 103.736 214.472,104.182 214.000,103.892 214.000 C 103.832 214.000,102.167 215.665,100.192 217.700 M83.792 234.100 L 80.200 237.800 83.900 234.208 C 87.336 230.872,87.782 230.400,87.492 230.400 C 87.432 230.400,85.767 232.065,83.792 234.100 M145.467 245.867 C 145.320 246.013,145.215 246.598,145.234 247.167 C 145.268 248.181,145.275 248.179,145.621 247.020 C 145.985 245.803,145.931 245.402,145.467 245.867 M145.206 250.433 C 145.209 250.965,145.389 251.670,145.606 252.000 C 145.882 252.422,145.923 252.185,145.742 251.200 C 145.425 249.475,145.198 249.149,145.206 250.433 M154.138 260.094 C 154.746 260.481,158.700 260.486,158.938 260.100 C 159.040 259.935,157.898 259.800,156.400 259.800 C 154.902 259.800,153.884 259.932,154.138 260.094 M59.991 272.273 C 59.515 272.900,59.517 272.930,60.009 272.490 C 60.609 271.954,132.800 343.567,132.800 344.699 C 132.800 344.975,132.986 345.200,133.214 345.200 C 134.168 345.200,131.281 342.233,96.696 307.673 C 63.520 274.520,60.498 271.605,59.991 272.273 M51.849 300.215 C 51.712 300.573,51.615 301.166,51.634 301.533 C 51.653 301.900,51.827 301.669,52.021 301.020 C 52.398 299.758,52.265 299.133,51.849 300.215 M51.049 303.015 C 50.912 303.373,50.815 303.966,50.834 304.333 C 50.853 304.700,51.027 304.469,51.221 303.820 C 51.598 302.558,51.465 301.933,51.049 303.015 M47.646 315.267 C 47.621 315.634,47.496 316.264,47.370 316.667 C 47.152 317.362,47.163 317.363,47.597 316.687 C 47.848 316.296,47.973 315.666,47.873 315.287 C 47.711 314.668,47.688 314.666,47.646 315.267 M46.846 318.067 C 46.821 318.434,46.696 319.064,46.570 319.467 C 46.352 320.162,46.363 320.163,46.797 319.487 C 47.048 319.096,47.173 318.466,47.073 318.087 C 46.911 317.468,46.888 317.466,46.846 318.067 M46.046 320.867 C 46.021 321.234,45.896 321.864,45.770 322.267 C 45.552 322.962,45.563 322.963,45.997 322.287 C 46.248 321.896,46.373 321.266,46.273 320.887 C 46.111 320.268,46.088 320.266,46.046 320.867 M42.846 332.267 C 42.821 332.524,42.684 333.064,42.541 333.467 C 42.340 334.036,42.394 334.097,42.779 333.742 C 43.052 333.491,43.189 332.951,43.084 332.542 C 42.979 332.134,42.872 332.010,42.846 332.267 M42.046 335.067 C 42.021 335.324,41.884 335.864,41.741 336.267 C 41.540 336.836,41.594 336.897,41.979 336.542 C 42.252 336.291,42.389 335.751,42.284 335.342 C 42.179 334.934,42.072 334.810,42.046 335.067 M121.400 348.000 C 120.896 348.217,120.822 348.344,121.200 348.344 C 121.530 348.344,122.160 348.189,122.600 348.000 C 123.104 347.783,123.178 347.656,122.800 347.656 C 122.470 347.656,121.840 347.811,121.400 348.000 M37.800 350.000 C 37.650 350.473,37.617 350.950,37.727 351.060 C 37.837 351.170,38.050 350.873,38.200 350.400 C 38.350 349.927,38.383 349.450,38.273 349.340 C 38.163 349.230,37.950 349.527,37.800 350.000 M112.400 350.400 C 111.576 350.664,111.541 350.726,112.200 350.754 C 112.640 350.773,113.270 350.613,113.600 350.400 C 114.301 349.947,113.814 349.947,112.400 350.400 M106.400 352.000 C 105.596 352.257,105.557 352.323,106.200 352.332 C 106.640 352.338,107.360 352.189,107.800 352.000 C 108.819 351.562,107.768 351.562,106.400 352.000 M102.000 353.218 C 101.562 353.515,101.724 353.552,102.600 353.356 C 104.071 353.027,104.390 352.798,103.367 352.806 C 102.945 352.809,102.330 352.995,102.000 353.218 M96.000 354.818 C 95.562 355.115,95.724 355.152,96.600 354.956 C 98.071 354.627,98.390 354.398,97.367 354.406 C 96.945 354.409,96.330 354.595,96.000 354.818 M93.200 355.618 C 92.762 355.915,92.924 355.952,93.800 355.756 C 95.271 355.427,95.590 355.198,94.567 355.206 C 94.145 355.209,93.530 355.395,93.200 355.618 M87.200 357.218 C 86.762 357.515,86.924 357.552,87.800 357.356 C 89.271 357.027,89.590 356.798,88.567 356.806 C 88.145 356.809,87.530 356.995,87.200 357.218 M35.429 358.629 C 35.281 359.215,35.238 359.772,35.332 359.866 C 35.427 359.960,35.624 359.558,35.771 358.971 C 35.919 358.385,35.962 357.828,35.868 357.734 C 35.773 357.640,35.576 358.042,35.429 358.629 M84.400 358.018 C 83.962 358.315,84.124 358.352,85.000 358.156 C 86.471 357.827,86.790 357.598,85.767 357.606 C 85.345 357.609,84.730 357.795,84.400 358.018 M63.600 363.600 C 63.067 363.945,63.067 363.988,63.600 363.988 C 63.930 363.988,64.470 363.813,64.800 363.600 C 65.333 363.255,65.333 363.212,64.800 363.212 C 64.470 363.212,63.930 363.387,63.600 363.600 M60.600 364.400 C 60.096 364.617,60.022 364.744,60.400 364.744 C 60.730 364.744,61.360 364.589,61.800 364.400 C 62.304 364.183,62.378 364.056,62.000 364.056 C 61.670 364.056,61.040 364.211,60.600 364.400 M54.800 366.000 C 54.267 366.345,54.267 366.388,54.800 366.388 C 55.130 366.388,55.670 366.213,56.000 366.000 C 56.533 365.655,56.533 365.612,56.000 365.612 C 55.670 365.612,55.130 365.787,54.800 366.000 M33.049 367.015 C 32.912 367.373,32.815 367.966,32.834 368.333 C 32.853 368.700,33.027 368.469,33.221 367.820 C 33.598 366.558,33.465 365.933,33.049 367.015 M51.800 366.800 C 51.296 367.017,51.222 367.144,51.600 367.144 C 51.930 367.144,52.560 366.989,53.000 366.800 C 53.504 366.583,53.578 366.456,53.200 366.456 C 52.870 366.456,52.240 366.611,51.800 366.800 M48.800 367.600 C 47.976 367.864,47.941 367.926,48.600 367.954 C 49.040 367.973,49.670 367.813,50.000 367.600 C 50.701 367.147,50.214 367.147,48.800 367.600 M42.800 369.200 C 41.976 369.464,41.941 369.526,42.600 369.554 C 43.040 369.573,43.670 369.413,44.000 369.200 C 44.701 368.747,44.214 368.747,42.800 369.200 M32.243 369.833 C 31.606 371.493,31.951 372.427,33.100 372.151 C 34.600 371.792,34.875 371.441,33.455 371.698 C 32.349 371.899,32.318 371.860,32.530 370.553 C 32.764 369.109,32.640 368.797,32.243 369.833 M40.000 370.000 C 39.176 370.264,39.141 370.326,39.800 370.354 C 40.240 370.373,40.870 370.213,41.200 370.000 C 41.901 369.547,41.414 369.547,40.000 370.000 " stroke="none" fill="#b9b2c6" fill-rule="evenodd"></path><path id="path3" d="M302.100 28.687 C 302.705 28.778,303.695 28.778,304.300 28.687 C 304.905 28.595,304.410 28.520,303.200 28.520 C 301.990 28.520,301.495 28.595,302.100 28.687 M295.800 29.219 C 295.242 29.471,295.485 29.507,296.600 29.338 C 297.480 29.204,298.275 29.028,298.367 28.947 C 298.710 28.644,296.568 28.871,295.800 29.219 M307.633 28.943 C 307.725 29.022,308.520 29.197,309.400 29.332 C 310.490 29.499,310.809 29.455,310.400 29.195 C 309.853 28.846,307.245 28.609,307.633 28.943 M318.400 32.179 C 318.400 32.289,318.940 32.659,319.600 33.000 C 320.260 33.341,320.800 33.531,320.800 33.421 C 320.800 33.311,320.260 32.941,319.600 32.600 C 318.940 32.259,318.400 32.069,318.400 32.179 M283.746 34.390 C 281.255 36.078,276.871 40.000,277.474 40.000 C 277.672 40.000,278.636 39.181,279.617 38.181 C 280.598 37.181,282.525 35.616,283.900 34.705 C 286.196 33.183,286.668 32.800,286.246 32.800 C 286.161 32.800,285.036 33.515,283.746 34.390 M347.000 58.400 C 358.878 70.280,368.687 80.000,368.797 80.000 C 368.907 80.000,359.278 70.280,347.400 58.400 C 335.522 46.520,325.713 36.800,325.603 36.800 C 325.493 36.800,335.122 46.520,347.000 58.400 M263.497 53.844 C 262.978 54.682,351.011 142.151,351.849 141.629 C 352.565 141.184,352.562 141.172,351.796 141.377 C 350.988 141.594,264.337 55.457,263.916 54.020 C 263.816 53.677,263.644 53.605,263.497 53.844 M247.200 70.044 C 246.711 70.396,246.744 70.428,247.381 70.219 C 248.018 70.010,256.239 78.022,291.981 113.682 L 335.800 157.400 292.001 113.500 C 267.911 89.355,248.111 69.603,248.001 69.606 C 247.890 69.609,247.530 69.806,247.200 70.044 M238.860 78.280 C 238.343 78.815,237.997 79.330,238.092 79.425 C 238.186 79.519,238.685 79.148,239.200 78.600 C 239.715 78.052,240.061 77.537,239.968 77.455 C 239.876 77.374,239.377 77.745,238.860 78.280 M371.786 84.700 C 372.135 85.415,372.506 86.000,372.610 86.000 C 373.008 86.000,372.752 85.363,371.967 84.400 L 371.152 83.400 371.786 84.700 M228.086 89.024 C 227.583 89.561,227.327 90.000,227.516 90.000 C 227.706 90.000,228.283 89.550,228.800 89.000 C 229.317 88.450,229.573 88.011,229.370 88.024 C 229.166 88.038,228.589 88.488,228.086 89.024 M375.228 92.676 C 375.318 93.715,375.944 94.596,375.972 93.724 C 375.987 93.242,375.820 92.736,375.600 92.600 C 375.380 92.464,375.213 92.498,375.228 92.676 M376.296 97.446 C 376.412 98.521,376.572 99.475,376.653 99.567 C 376.972 99.929,376.765 96.565,376.437 96.046 C 376.222 95.707,376.168 96.251,376.296 97.446 M376.462 106.000 C 376.422 106.770,376.296 107.850,376.183 108.400 L 375.977 109.400 376.408 108.414 C 376.644 107.871,376.770 106.791,376.686 106.014 L 376.534 104.600 376.462 106.000 M209.660 107.442 C 209.362 107.778,209.199 108.132,209.295 108.229 C 209.392 108.326,209.798 108.044,210.198 107.602 C 210.597 107.161,210.761 106.807,210.562 106.815 C 210.363 106.824,209.957 107.105,209.660 107.442 M207.260 109.842 C 206.962 110.178,206.799 110.532,206.895 110.629 C 206.992 110.726,207.398 110.444,207.798 110.002 C 208.197 109.561,208.361 109.207,208.162 109.215 C 207.963 109.224,207.557 109.505,207.260 109.842 M375.646 110.467 C 375.621 110.834,375.496 111.464,375.370 111.867 C 375.152 112.562,375.163 112.563,375.597 111.887 C 375.848 111.496,375.973 110.866,375.873 110.487 C 375.711 109.868,375.688 109.866,375.646 110.467 M368.253 124.600 C 367.209 125.810,366.460 126.800,366.589 126.800 C 366.840 126.800,369.050 124.372,369.923 123.139 C 370.917 121.733,370.145 122.409,368.253 124.600 M354.602 138.398 C 354.203 138.839,354.007 139.200,354.167 139.200 C 354.588 139.200,355.728 137.995,355.512 137.779 C 355.411 137.678,355.002 137.956,354.602 138.398 M199.863 189.900 C 152.046 237.670,146.000 243.917,146.000 245.557 C 146.000 245.887,146.446 245.267,146.991 244.179 C 147.933 242.296,249.535 140.258,251.800 138.920 C 252.366 138.586,252.426 138.440,252.007 138.424 C 251.680 138.411,228.216 161.575,199.863 189.900 M264.581 140.719 C 266.187 142.426,266.949 142.973,265.949 141.702 C 265.204 140.753,264.739 140.304,263.798 139.619 C 263.359 139.299,263.712 139.794,264.581 140.719 M267.268 144.800 C 267.288 145.839,267.918 147.546,267.932 146.600 C 267.938 146.160,267.789 145.440,267.600 145.000 C 267.389 144.510,267.261 144.432,267.268 144.800 M267.646 150.067 C 267.621 150.434,267.496 151.064,267.370 151.467 C 267.152 152.162,267.163 152.163,267.597 151.487 C 267.848 151.096,267.973 150.466,267.873 150.087 C 267.711 149.468,267.688 149.466,267.646 150.067 M266.294 153.703 L 265.588 155.000 266.394 154.056 C 267.080 153.252,267.446 152.394,267.100 152.403 C 267.045 152.404,266.682 152.989,266.294 153.703 M213.800 206.774 C 185.420 235.139,162.470 258.190,162.800 257.998 C 163.503 257.589,265.894 155.200,265.599 155.201 C 265.490 155.201,242.180 178.410,213.800 206.774 M321.398 171.602 C 320.358 172.751,320.820 172.880,321.914 171.746 C 322.417 171.226,322.670 170.800,322.476 170.800 C 322.282 170.800,321.797 171.161,321.398 171.602 M133.402 183.598 C 133.003 184.039,132.807 184.400,132.967 184.400 C 133.388 184.400,134.528 183.195,134.312 182.979 C 134.211 182.878,133.802 183.156,133.402 183.598 M304.602 188.398 C 304.203 188.839,304.007 189.200,304.167 189.200 C 304.588 189.200,305.728 187.995,305.512 187.779 C 305.411 187.678,305.002 187.956,304.602 188.398 M288.202 204.798 C 287.803 205.239,287.607 205.600,287.767 205.600 C 288.188 205.600,289.328 204.395,289.112 204.179 C 289.011 204.078,288.602 204.356,288.202 204.798 M271.398 221.602 C 270.358 222.751,270.820 222.880,271.914 221.746 C 272.417 221.226,272.670 220.800,272.476 220.800 C 272.282 220.800,271.797 221.161,271.398 221.602 M83.402 233.598 C 83.003 234.039,82.807 234.400,82.967 234.400 C 83.388 234.400,84.528 233.195,84.312 232.979 C 84.211 232.878,83.802 233.156,83.402 233.598 M254.602 238.398 C 254.203 238.839,254.007 239.200,254.167 239.200 C 254.588 239.200,255.728 237.995,255.512 237.779 C 255.411 237.678,255.002 237.956,254.602 238.398 M69.246 248.201 C 69.214 248.760,82.416 262.187,113.100 292.801 L 157.000 336.600 113.332 292.800 C 89.315 268.710,69.581 248.640,69.479 248.200 C 69.293 247.401,69.293 247.401,69.246 248.201 M146.805 254.000 C 147.391 255.140,148.800 257.027,148.800 256.672 C 148.800 256.425,146.926 253.578,146.523 253.210 C 146.396 253.095,146.523 253.450,146.805 254.000 M238.202 254.798 C 237.803 255.239,237.607 255.600,237.767 255.600 C 238.188 255.600,239.328 254.395,239.112 254.179 C 239.011 254.078,238.602 254.356,238.202 254.798 M154.077 259.660 C 155.293 260.003,157.946 259.992,159.200 259.639 C 159.768 259.479,158.679 259.367,156.677 259.379 C 154.739 259.390,153.569 259.517,154.077 259.660 M221.398 271.602 C 220.358 272.751,220.820 272.880,221.914 271.746 C 222.417 271.226,222.670 270.800,222.476 270.800 C 222.282 270.800,221.797 271.161,221.398 271.602 M59.360 272.219 C 59.219 272.779,59.216 273.349,59.352 273.485 C 59.488 273.622,59.600 273.354,59.600 272.890 C 59.600 271.672,60.318 271.410,61.325 272.261 L 62.200 273.000 61.438 272.100 C 60.436 270.917,59.675 270.960,59.360 272.219 M69.396 280.305 C 73.354 284.317,76.674 287.600,76.774 287.600 C 77.146 287.600,69.025 279.359,64.560 275.205 C 63.262 273.997,65.438 276.292,69.396 280.305 M58.649 274.615 C 58.512 274.973,58.415 275.566,58.434 275.933 C 58.453 276.300,58.627 276.069,58.821 275.420 C 59.198 274.158,59.065 273.533,58.649 274.615 M57.849 277.415 C 57.712 277.773,57.615 278.366,57.634 278.733 C 57.653 279.100,57.827 278.869,58.021 278.220 C 58.398 276.958,58.265 276.333,57.849 277.415 M57.049 280.215 C 56.912 280.573,56.815 281.166,56.834 281.533 C 56.853 281.900,57.027 281.669,57.221 281.020 C 57.598 279.758,57.465 279.133,57.049 280.215 M56.046 284.067 C 56.021 284.434,55.896 285.064,55.770 285.467 C 55.552 286.162,55.563 286.163,55.997 285.487 C 56.248 285.096,56.373 284.466,56.273 284.087 C 56.111 283.468,56.088 283.466,56.046 284.067 M55.246 286.867 C 55.221 287.234,55.096 287.864,54.970 288.267 C 54.752 288.962,54.763 288.963,55.197 288.287 C 55.448 287.896,55.573 287.266,55.473 286.887 C 55.311 286.268,55.288 286.266,55.246 286.867 M204.602 288.398 C 204.203 288.839,204.007 289.200,204.167 289.200 C 204.588 289.200,205.728 287.995,205.512 287.779 C 205.411 287.678,205.002 287.956,204.602 288.398 M78.783 289.700 C 79.764 290.745,80.619 291.600,80.683 291.600 C 80.984 291.600,80.666 291.241,78.900 289.583 L 77.000 287.800 78.783 289.700 M54.446 289.667 C 54.421 290.034,54.296 290.664,54.170 291.067 C 53.952 291.762,53.963 291.763,54.397 291.087 C 54.648 290.696,54.773 290.066,54.673 289.687 C 54.511 289.068,54.488 289.066,54.446 289.667 M53.111 294.461 C 52.741 295.841,52.503 297.036,52.582 297.115 C 52.798 297.331,54.063 292.790,53.913 292.339 C 53.842 292.125,53.481 293.080,53.111 294.461 M86.995 297.913 C 90.292 301.261,93.069 304.000,93.165 304.000 C 93.558 304.000,84.475 294.759,82.170 292.813 C 81.526 292.270,83.698 294.565,86.995 297.913 M51.850 298.850 C 51.517 300.517,51.840 300.840,52.200 299.200 C 52.352 298.509,52.393 297.859,52.291 297.758 C 52.189 297.656,51.991 298.147,51.850 298.850 M51.029 301.829 C 50.881 302.415,50.838 302.972,50.932 303.066 C 51.027 303.160,51.224 302.758,51.371 302.171 C 51.519 301.585,51.562 301.028,51.468 300.934 C 51.373 300.840,51.176 301.242,51.029 301.829 M50.229 304.629 C 50.081 305.215,50.038 305.772,50.132 305.866 C 50.227 305.960,50.424 305.558,50.571 304.971 C 50.719 304.385,50.762 303.828,50.668 303.734 C 50.573 303.640,50.376 304.042,50.229 304.629 M188.202 304.798 C 187.803 305.239,187.607 305.600,187.767 305.600 C 188.188 305.600,189.328 304.395,189.112 304.179 C 189.011 304.078,188.602 304.356,188.202 304.798 M49.400 307.600 C 49.250 308.073,49.217 308.550,49.327 308.660 C 49.437 308.770,49.650 308.473,49.800 308.000 C 49.950 307.527,49.983 307.050,49.873 306.940 C 49.763 306.830,49.550 307.127,49.400 307.600 M103.796 314.705 C 108.194 319.157,111.878 322.800,111.983 322.800 C 112.331 322.800,102.450 312.796,98.160 308.805 C 96.862 307.598,99.398 310.253,103.796 314.705 M48.600 310.400 C 48.450 310.873,48.417 311.350,48.527 311.460 C 48.637 311.570,48.850 311.273,49.000 310.800 C 49.150 310.327,49.183 309.850,49.073 309.740 C 48.963 309.630,48.750 309.927,48.600 310.400 M46.200 318.800 C 46.050 319.273,46.017 319.750,46.127 319.860 C 46.237 319.970,46.450 319.673,46.600 319.200 C 46.750 318.727,46.783 318.250,46.673 318.140 C 46.563 318.030,46.350 318.327,46.200 318.800 M171.398 321.602 C 170.358 322.751,170.820 322.880,171.914 321.746 C 172.417 321.226,172.670 320.800,172.476 320.800 C 172.282 320.800,171.797 321.161,171.398 321.602 M119.396 330.305 C 123.354 334.317,126.674 337.600,126.774 337.600 C 127.146 337.600,119.025 329.359,114.560 325.205 C 113.262 323.997,115.438 326.292,119.396 330.305 M43.867 327.067 C 43.720 327.213,43.611 327.708,43.625 328.167 C 43.649 328.933,43.682 328.923,44.034 328.042 C 44.426 327.063,44.344 326.589,43.867 327.067 M41.449 335.815 C 41.312 336.173,41.215 336.766,41.234 337.133 C 41.253 337.500,41.427 337.269,41.621 336.620 C 41.998 335.358,41.865 334.733,41.449 335.815 M40.649 338.615 C 40.512 338.973,40.415 339.566,40.434 339.933 C 40.453 340.300,40.627 340.069,40.821 339.420 C 41.198 338.158,41.065 337.533,40.649 338.615 M128.783 339.700 C 130.441 341.466,130.800 341.784,130.800 341.483 C 130.800 341.419,129.945 340.564,128.900 339.583 L 127.000 337.800 128.783 339.700 M39.849 341.415 C 39.712 341.773,39.615 342.366,39.634 342.733 C 39.653 343.100,39.827 342.869,40.021 342.220 C 40.398 340.958,40.265 340.333,39.849 341.415 M132.300 343.247 C 133.795 344.847,133.860 345.073,132.900 345.324 C 132.269 345.489,132.267 345.512,132.876 345.554 C 134.475 345.663,134.168 344.276,132.273 342.828 L 131.000 341.855 132.300 343.247 M39.049 344.215 C 38.912 344.573,38.815 345.166,38.834 345.533 C 38.853 345.900,39.027 345.669,39.221 345.020 C 39.598 343.758,39.465 343.133,39.049 344.215 M38.249 347.015 C 38.112 347.373,38.015 347.966,38.034 348.333 C 38.053 348.700,38.227 348.469,38.421 347.820 C 38.798 346.558,38.665 345.933,38.249 347.015 M127.200 346.800 C 126.376 347.064,126.341 347.126,127.000 347.154 C 127.440 347.173,128.070 347.013,128.400 346.800 C 129.101 346.347,128.614 346.347,127.200 346.800 M122.600 348.000 C 121.581 348.438,122.632 348.438,124.000 348.000 C 124.804 347.743,124.843 347.677,124.200 347.668 C 123.760 347.662,123.040 347.811,122.600 348.000 M116.800 349.618 C 116.362 349.915,116.524 349.952,117.400 349.756 C 118.871 349.427,119.190 349.198,118.167 349.206 C 117.745 349.209,117.130 349.395,116.800 349.618 M113.800 350.400 C 113.296 350.617,113.222 350.744,113.600 350.744 C 113.930 350.744,114.560 350.589,115.000 350.400 C 115.504 350.183,115.578 350.056,115.200 350.056 C 114.870 350.056,114.240 350.211,113.800 350.400 M37.246 350.867 C 37.221 351.234,37.096 351.864,36.970 352.267 C 36.752 352.962,36.763 352.963,37.197 352.287 C 37.448 351.896,37.573 351.266,37.473 350.887 C 37.311 350.268,37.288 350.266,37.246 350.867 M110.800 351.200 C 110.005 351.714,111.004 351.714,112.200 351.200 L 113.000 350.856 112.200 350.834 C 111.760 350.822,111.130 350.987,110.800 351.200 M107.800 352.000 C 107.296 352.217,107.222 352.344,107.600 352.344 C 107.930 352.344,108.560 352.189,109.000 352.000 C 109.504 351.783,109.578 351.656,109.200 351.656 C 108.870 351.656,108.240 351.811,107.800 352.000 M36.446 353.667 C 36.421 354.034,36.296 354.664,36.170 355.067 C 35.952 355.762,35.963 355.763,36.397 355.087 C 36.648 354.696,36.773 354.066,36.673 353.687 C 36.511 353.068,36.488 353.066,36.446 353.667 M102.000 353.600 C 101.467 353.945,101.467 353.988,102.000 353.988 C 102.330 353.988,102.870 353.813,103.200 353.600 C 103.733 353.255,103.733 353.212,103.200 353.212 C 102.870 353.212,102.330 353.387,102.000 353.600 M93.200 356.000 C 92.667 356.345,92.667 356.388,93.200 356.388 C 93.530 356.388,94.070 356.213,94.400 356.000 C 94.933 355.655,94.933 355.612,94.400 355.612 C 94.070 355.612,93.530 355.787,93.200 356.000 M35.646 356.467 C 35.621 356.834,35.496 357.464,35.370 357.867 C 35.152 358.562,35.163 358.563,35.597 357.887 C 35.848 357.496,35.973 356.866,35.873 356.487 C 35.711 355.868,35.688 355.866,35.646 356.467 M81.200 359.200 C 80.376 359.464,80.341 359.526,81.000 359.554 C 81.440 359.573,82.070 359.413,82.400 359.200 C 83.101 358.747,82.614 358.747,81.200 359.200 M78.400 360.000 C 77.576 360.264,77.541 360.326,78.200 360.354 C 78.640 360.373,79.270 360.213,79.600 360.000 C 80.301 359.547,79.814 359.547,78.400 360.000 M75.200 360.800 C 74.376 361.064,74.341 361.126,75.000 361.154 C 75.440 361.173,76.070 361.013,76.400 360.800 C 77.101 360.347,76.614 360.347,75.200 360.800 M72.400 361.600 C 71.576 361.864,71.541 361.926,72.200 361.954 C 72.640 361.973,73.270 361.813,73.600 361.600 C 74.301 361.147,73.814 361.147,72.400 361.600 M67.000 363.011 C 66.120 363.301,65.670 363.550,66.000 363.563 C 66.330 363.577,67.410 363.333,68.400 363.021 C 69.390 362.709,69.840 362.460,69.400 362.469 C 68.960 362.477,67.880 362.721,67.000 363.011 M63.600 364.000 C 62.776 364.264,62.741 364.326,63.400 364.354 C 63.840 364.373,64.470 364.213,64.800 364.000 C 65.501 363.547,65.014 363.547,63.600 364.000 M33.029 365.829 C 32.881 366.415,32.838 366.972,32.932 367.066 C 33.027 367.160,33.224 366.758,33.371 366.171 C 33.519 365.585,33.562 365.028,33.468 364.934 C 33.373 364.840,33.176 365.242,33.029 365.829 M59.000 365.200 C 57.981 365.638,59.032 365.638,60.400 365.200 C 61.204 364.943,61.243 364.877,60.600 364.868 C 60.160 364.862,59.440 365.011,59.000 365.200 M53.200 366.818 C 52.762 367.115,52.924 367.152,53.800 366.956 C 55.271 366.627,55.590 366.398,54.567 366.406 C 54.145 366.409,53.530 366.595,53.200 366.818 M50.200 367.600 C 49.696 367.817,49.622 367.944,50.000 367.944 C 50.330 367.944,50.960 367.789,51.400 367.600 C 51.904 367.383,51.978 367.256,51.600 367.256 C 51.270 367.256,50.640 367.411,50.200 367.600 M47.400 368.400 C 46.896 368.617,46.822 368.744,47.200 368.744 C 47.530 368.744,48.160 368.589,48.600 368.400 C 49.104 368.183,49.178 368.056,48.800 368.056 C 48.470 368.056,47.840 368.211,47.400 368.400 M38.400 370.800 C 37.576 371.064,37.541 371.126,38.200 371.154 C 38.640 371.173,39.270 371.013,39.600 370.800 C 40.301 370.347,39.814 370.347,38.400 370.800 M31.441 371.436 C 30.962 372.686,32.269 373.267,33.600 372.394 C 34.029 372.114,33.836 372.071,32.926 372.245 C 31.776 372.466,31.673 372.407,31.872 371.645 C 32.130 370.661,31.800 370.501,31.441 371.436 " stroke="none" fill="#9c94b4" fill-rule="evenodd"></path><path id="path4" d="M376.531 102.200 C 376.533 103.740,376.605 104.321,376.692 103.491 C 376.779 102.661,376.777 101.401,376.689 100.691 C 376.600 99.981,376.529 100.660,376.531 102.200 " stroke="none" fill="#a49bb4" fill-rule="evenodd"></path></g></svg>